<svg width="16" height="16" viewBox="0 0 16 16" fill="none" xmlns="http://www.w3.org/2000/svg">
<path fill-rule="evenodd" clip-rule="evenodd" d="M8.35355 10.3575C8.15829 10.5527 7.84171 10.5527 7.64645 10.3575L5.28787 7.99888C5.20976 7.92078 5.20976 7.79414 5.28787 7.71604L5.71213 7.29177C5.79024 7.21367 5.91687 7.21367 5.99497 7.29177L7.15858 8.45538C7.28457 8.58137 7.5 8.49214 7.5 8.31396V2.95391C7.5 2.84345 7.58954 2.75391 7.7 2.75391H8.3C8.41046 2.75391 8.5 2.84345 8.5 2.95391V8.31396C8.5 8.49214 8.71543 8.58137 8.84142 8.45538L10.005 7.29177C10.0831 7.21367 10.2098 7.21367 10.2879 7.29177L10.7121 7.71604C10.7902 7.79414 10.7902 7.92078 10.7121 7.99888L8.35355 10.3575ZM3 10.2461V9.94609C3 9.83564 2.91046 9.74609 2.8 9.74609H2.2C2.08954 9.74609 2 9.83564 2 9.94609V10.2461V12.7461C2 13.0222 2.22386 13.2461 2.5 13.2461H13.5C13.7761 13.2461 14 13.0222 14 12.7461V10.2461V9.94609C14 9.83564 13.9105 9.74609 13.8 9.74609H13.2C13.0895 9.74609 13 9.83564 13 9.94609V10.2461V12.0461C13 12.1566 12.9105 12.2461 12.8 12.2461H3.2C3.08954 12.2461 3 12.1566 3 12.0461V10.2461Z" fill="#1262EE"/>
</svg>
