<svg width="32" height="32" viewBox="0 0 32 32" fill="none" xmlns="http://www.w3.org/2000/svg">
<rect x="1" y="1" width="30" height="26" rx="5.33332" fill="#CDF7F0"/>
<rect x="1" y="4" width="30" height="27" rx="5.33332" fill="#67DFC9"/>
<path d="M18.7559 8C19.5288 8.00001 20.1561 8.62248 20.1562 9.38965V10.9785H21.9561C22.3804 10.9786 22.7871 11.1467 23.0869 11.4443C23.2352 11.5913 23.3532 11.7663 23.4336 11.959C23.514 12.1517 23.5555 12.3586 23.5557 12.5674V17.0098C22.6024 16.3717 21.4558 16.0001 20.2227 16C16.9089 16 14.2227 18.6863 14.2227 22C14.2227 23.2094 14.5817 24.3342 15.1973 25.2764H12.1562V26.0713C12.1562 26.3844 11.911 26.6436 11.5967 26.665C11.2819 26.6864 11.0048 26.4621 10.9619 26.1523L10.9561 26.0713V25.2773H9.15527C8.73093 25.2772 8.32426 25.1096 8.02441 24.8115C7.87614 24.6646 7.75816 24.4896 7.67773 24.2969C7.59734 24.1041 7.55583 23.8973 7.55566 23.6885V12.5674C7.55566 12.1461 7.72416 11.7425 8.02441 11.4443C8.32426 11.1462 8.73093 10.9786 9.15527 10.9785H10.9561V9.38965C10.9562 8.66651 11.5147 8.06438 12.2402 8.00488L12.3555 8H18.7559ZM12.3555 9.19141C12.2451 9.19166 12.1562 9.28064 12.1562 9.39062V10.9795H18.9551V9.38965C18.9551 9.35393 18.946 9.31877 18.9277 9.28809C18.9094 9.25736 18.8831 9.23176 18.8516 9.21484L18.8008 9.19727L18.7559 9.19141H12.3555Z" fill="white"/>
<path d="M18.1335 14.2911C17.8001 14.2911 17.5181 14.5242 17.473 14.8369L17.4668 14.923V14.9931L17.473 15.0792C17.5186 15.3919 17.8006 15.6245 18.1335 15.6245C18.4663 15.6245 18.7488 15.3914 18.7939 15.0792L18.8001 14.9931V14.923L18.7939 14.8369C18.7483 14.5242 18.4663 14.2911 18.1335 14.2911Z" fill="#67DFC9"/>
<path d="M11.2001 14.2911C10.8668 14.2911 10.5848 14.5242 10.5397 14.8369L10.5334 14.923V21.6598L10.5397 21.7459C10.5853 22.0586 10.8673 22.2911 11.2001 22.2911C11.5329 22.2911 11.8155 22.0581 11.8606 21.7459L11.8668 21.6598V14.923L11.8606 14.8369C11.8155 14.5242 11.5334 14.2911 11.2001 14.2911Z" fill="#67DFC9"/>
<path d="M14.6667 14.2911C14.3333 14.2911 14.0513 14.5242 14.0062 14.8369L14 14.923V16.3265L14.0062 16.4126C14.0518 16.7253 14.3339 16.9578 14.6667 16.9578C14.9995 16.9578 15.282 16.7248 15.3271 16.4126L15.3333 16.3265V14.923L15.3271 14.8369C15.282 14.5242 15 14.2911 14.6667 14.2911Z" fill="#67DFC9"/>
<path d="M20.2227 17.3334C22.7998 17.3336 24.8887 19.4231 24.8887 22.0004C24.8885 24.5774 22.7997 26.6662 20.2227 26.6664C17.6454 26.6664 15.5558 24.5775 15.5557 22.0004C15.5557 19.423 17.6453 17.3334 20.2227 17.3334ZM22.0869 19.6459C21.9177 19.4767 21.6644 19.4765 21.4951 19.5892L21.4385 19.6459L20.2256 20.8871L19.0117 19.6459C18.8424 19.4766 18.5609 19.4765 18.3916 19.6176L18.3633 19.6459C18.2788 19.7304 18.2228 19.8428 18.2227 19.9554C18.2227 20.0682 18.2504 20.1814 18.335 20.266L18.3633 20.2943L19.4355 21.3949H18.7305C18.4766 21.3949 18.2783 21.5922 18.2783 21.8461C18.2784 22.0999 18.4765 22.2972 18.7021 22.2972H19.7734V22.6078H18.7305C18.4766 22.6078 18.2784 22.8051 18.2783 23.059C18.2783 23.3129 18.4765 23.5101 18.7021 23.5101H19.7734L19.7705 24.392C19.7705 24.6459 19.9688 24.8441 20.2227 24.8441C20.4764 24.8439 20.6738 24.6459 20.6738 24.4203L20.6768 23.5101H21.7207C21.9745 23.51 22.1719 23.3128 22.1719 23.059C22.1718 22.8053 21.9745 22.608 21.749 22.6078H20.6768V22.2972H21.7207C21.9744 22.2971 22.1718 22.0998 22.1719 21.8461C22.1719 21.5923 21.9745 21.3951 21.749 21.3949H21.0156L22.0869 20.2943C22.2562 20.125 22.2564 19.8708 22.1436 19.7015L22.1152 19.6742L22.0869 19.6459Z" fill="white"/>
</svg>
