<svg width="28" height="28" viewBox="0 0 28 28" fill="none" xmlns="http://www.w3.org/2000/svg">
<rect width="28" height="28" rx="4" fill="url(#paint0_linear_1_8283)"/>
<path d="M7.3293 20.2416H20.6701C20.8532 20.2416 21.0014 20.3897 21.0014 20.5729V21.4679C21.0014 21.651 20.8532 21.7991 20.6701 21.7991H7.3293C7.14619 21.7991 6.99805 21.651 6.99805 21.4679V20.5729C6.99805 20.3897 7.14619 20.2416 7.3293 20.2416ZM19.9664 16.0916H17.3452C16.6477 16.0916 16.0654 15.5567 16.0099 14.8612C15.8638 12.9807 17.8904 12.0816 17.8904 9.77512C17.8904 7.81638 16.3987 6.23828 13.9997 6.23828C11.6007 6.23828 10.111 7.81844 10.111 9.77512C10.111 12.0816 12.1377 12.9807 11.9916 14.8612C11.934 15.5567 11.3538 16.0916 10.6563 16.0916H8.03297C7.46098 16.0916 6.99805 16.5546 6.99805 17.1265V18.8734C6.99805 19.0565 7.14619 19.2046 7.3293 19.2046H20.6701C20.8532 19.2046 21.0014 19.0565 21.0014 18.8734V17.1265C21.0014 16.5566 20.5384 16.0916 19.9664 16.0916Z" fill="white"/>
<defs>
<linearGradient id="paint0_linear_1_8283" x1="14" y1="0" x2="14" y2="28" gradientUnits="userSpaceOnUse">
<stop stop-color="#44BDFF"/>
<stop offset="1" stop-color="#1A91F3"/>
</linearGradient>
</defs>
</svg>
