<svg t="1779261192651" class="icon" viewBox="0 0 1244 1024" version="1.1" xmlns="http://www.w3.org/2000/svg" p-id="5980" width="200" height="200"><path d="M169.02481 939.312608c0 22.46319 47.758582 43.999595 132.770025 59.884557 85.004962 15.884962 200.302177 24.809316 320.524962 24.809316 120.216304 0 235.513519-8.924354 320.524962-24.809316 85.004962-15.884962 132.763544-37.421367 132.763545-59.884557s-47.758582-44.006076-132.763545-59.884557c-85.011443-15.884962-200.308658-24.809316-320.524962-24.809317-120.222785 0-235.52 8.924354-320.531443 24.809317-85.004962 15.878481-132.763544 37.421367-132.763544 59.884557z" fill="#F9F9F9" p-id="5981"></path><path d="M368.776101 554.340456h507.074431l115.245367 138.589974H253.537215L368.76962 554.340456z" fill="#899CA7" p-id="5982"></path><path d="M399.509063 215.584405H845.124051c20.486481 0 30.732962 10.265924 30.732962 30.797772v492.751393c0 20.531848-10.246481 30.791291-30.732962 30.791291H399.509063c-20.486481 0-30.732962-10.259443-30.732962-30.791291v-492.751393c0-20.531848 10.246481-30.797772 30.732962-30.797772z" fill="#F8F8F8" p-id="5983"></path><path d="M453.294987 284.872911H791.331646c10.246481 0 15.366481 5.132962 15.366481 15.398886v161.681823c0 10.265924-5.12 15.398886-15.366481 15.398886h-338.049621c-10.24 0-15.36-5.132962-15.36-15.398886V300.271797c0-10.265924 5.12-15.398886 15.36-15.398886zM453.294987 631.341367H791.331646c10.246481 0 15.366481 5.132962 15.366481 15.398886 0 10.265924-5.12 15.398886-15.366481 15.398886h-338.049621c-10.24 0-15.36-5.132962-15.36-15.398886 0-10.265924 5.12-15.398886 15.36-15.398886zM453.294987 554.340456H791.331646c10.246481 0 15.366481 5.132962 15.366481 15.398886 0 10.265924-5.12 15.398886-15.366481 15.398886h-338.049621c-10.24 0-15.36-5.132962-15.36-15.398886 0-10.265924 5.12-15.398886 15.36-15.398886z" fill="#DBE4EA" p-id="5984"></path><path d="M745.238684 769.931342l1.536-0.038886a30.700557 30.700557 0 0 0 20.732759-9.53357 30.823696 30.823696 0 0 0 8.464203-21.225316v-15.398886a30.804253 30.804253 0 0 1 18.969924-28.451646 30.674633 30.674633 0 0 1 11.763038-2.346127h184.391291v230.976811a46.27443 46.27443 0 0 1-13.49995 32.664303 46.054076 46.054076 0 0 1-32.599493 13.532355H299.630177a46.041114 46.041114 0 0 1-32.599493-13.532355 46.248506 46.248506 0 0 1-13.493469-32.664303v-230.976811h184.38481c8.153114 0 15.969215 3.246987 21.730836 9.02157 5.768101 5.774582 9.008608 13.610127 9.008607 21.776203v15.398886c0 7.900354 3.026633 15.496101 8.457722 21.225316a30.72 30.72 0 0 0 20.732759 9.53357l1.536 0.038886h245.850735zM1090.974785 0c84.86238 0 153.658329 55.153418 153.658329 123.191089s-68.795949 123.184608-153.658329 123.184607c-31.556051 0-60.111392-6.176405-84.512405-19.248607l-49.936203 15.398886 11.523241-46.196659c-18.976405-20.492962-30.732962-45.652253-30.732962-73.138227C937.316456 55.140456 1006.112405 0 1090.974785 0z m15.366481 107.792203h-30.732962v30.797772h30.732962v-30.797772z m46.099443 0a15.36 15.36 0 0 0-15.366481 15.392405 15.405367 15.405367 0 0 0 15.366481 15.405367 15.36 15.36 0 0 0 15.36-15.405367 15.405367 15.405367 0 0 0-15.36-15.392405z m-122.931848 0l-15.366481 30.797772h30.732962l-15.366481-30.797772z" fill="#D7E2E9" p-id="5985"></path></svg>