<svg width="20" height="20" viewBox="0 0 20 20" fill="none" xmlns="http://www.w3.org/2000/svg">
<path d="M9.99477 10.8279C10.4548 10.8279 10.8277 10.455 10.8277 9.99501C10.8277 9.53501 10.4548 9.16211 9.99477 9.16211C9.53477 9.16211 9.16187 9.53501 9.16187 9.99501C9.16187 10.455 9.53477 10.8279 9.99477 10.8279Z" stroke="#4B5563" stroke-width="1.66581" stroke-linecap="round" stroke-linejoin="round"/>
<path d="M15.8251 10.8279C16.2851 10.8279 16.658 10.455 16.658 9.99501C16.658 9.53501 16.2851 9.16211 15.8251 9.16211C15.3651 9.16211 14.9922 9.53501 14.9922 9.99501C14.9922 10.455 15.3651 10.8279 15.8251 10.8279Z" stroke="#4B5563" stroke-width="1.66581" stroke-linecap="round" stroke-linejoin="round"/>
<path d="M4.16445 10.8279C4.62445 10.8279 4.99735 10.455 4.99735 9.99501C4.99735 9.53501 4.62445 9.16211 4.16445 9.16211C3.70445 9.16211 3.33154 9.53501 3.33154 9.99501C3.33154 10.455 3.70445 10.8279 4.16445 10.8279Z" stroke="#4B5563" stroke-width="1.66581" stroke-linecap="round" stroke-linejoin="round"/>
</svg>
