<svg width="20" height="20" viewBox="0 0 20 20" fill="none" xmlns="http://www.w3.org/2000/svg">
<path d="M5.04984 10.3537C4.85458 10.1585 4.85458 9.8419 5.04984 9.64664L7.78848 6.90801C8.03269 6.66379 8.42864 6.66379 8.67285 6.90801C8.91707 7.15222 8.91707 7.54817 8.67285 7.79238L6.46504 10.0002L8.67285 12.208C8.91707 12.4522 8.91707 12.8482 8.67285 13.0924C8.42864 13.3366 8.03269 13.3366 7.78848 13.0924L5.04984 10.3537Z" fill="#4B5563"/>
<path d="M6.32129 9.25H14.3994C14.8136 9.25 15.1494 9.58579 15.1494 10C15.1494 10.4142 14.8136 10.75 14.3994 10.75H6.32129V9.25Z" fill="#4B5563"/>
<path d="M10 18.251C14.5569 18.251 18.251 14.5569 18.251 10C18.251 5.44311 14.5569 1.74902 10 1.74902C5.44311 1.74902 1.74902 5.44311 1.74902 10C1.74902 14.5569 5.44311 18.251 10 18.251Z" stroke="#4B5563" stroke-width="1.5" stroke-linecap="round" stroke-linejoin="round"/>
</svg>
